<?xml version="1.0" encoding="iso-8859-1"?>
<!-- Generator: Adobe Illustrator 22.1.0, SVG Export Plug-In . SVG Version: 6.00 Build 0)  -->
<svg xmlns="http://www.w3.org/2000/svg" xmlns:xlink="http://www.w3.org/1999/xlink" version="1.1" id="Layer_1_1_" x="0px" y="0px" viewBox="0 0 64 64" style="enable-background:new 0 0 64 64;" xml:space="preserve" width="512" height="512">
<g>
	<g>
		<polygon style="fill:#F0BC5E;" points="38,54 36.581,48.092 49.581,42.092 55,46   "/>
	</g>
	<g>
		<path style="fill:#F0BC5E;" d="M21,14H1v-1c0-2.757,2.243-5,5-5h15V14z"/>
	</g>
	<g>
		<path style="fill:#F0BC5E;" d="M21,22H6c-2.757,0-5-2.243-5-5v-1h20V22z"/>
	</g>
	<g>
		<path style="fill:#F0BC5E;" d="M25,53.914v-5.828l-2.515-0.226c-0.152-0.463-0.339-0.913-0.558-1.348l1.618-1.938l-4.121-4.121    l-1.938,1.618c-0.435-0.219-0.885-0.405-1.348-0.558L15.914,39h-5.828L9.86,41.515c-0.463,0.152-0.913,0.339-1.348,0.558    l-1.938-1.618l-4.121,4.121l1.618,1.938c-0.219,0.435-0.405,0.885-0.558,1.348L1,48.086v5.828l2.515,0.226    c0.152,0.463,0.339,0.913,0.558,1.348l-1.618,1.938l4.121,4.121l1.938-1.618c0.435,0.219,0.885,0.405,1.348,0.558L10.086,63h5.828    l0.226-2.515c0.463-0.152,0.913-0.339,1.348-0.558l1.938,1.618l4.121-4.121l-1.618-1.938c0.219-0.435,0.405-0.885,0.558-1.348    L25,53.914z M13,56c-2.761,0-5-2.239-5-5s2.239-5,5-5s5,2.239,5,5S15.761,56,13,56z"/>
	</g>
	<g>
		<polygon points="35,34 33,34 33,36 31,36 31,38 33,38 33,40 35,40 35,38 37,38 37,36 35,36   "/>
		<path d="M63,20V10h-5V6.236L60.618,1H49.382L52,6.236V10h-2.556C48.75,8.81,47.474,8,46,8H30c-2.206,0-4,1.794-4,4H12v6h14    c0,2.206,1.794,4,4,4h0.64l-3.31,10.594C26.491,33.858,26,35.372,26,37c0,4.411,3.589,8,8,8c0.395,0,0.781-0.038,1.161-0.094    L36.78,53h-1.398l-2,4H31v6h32v-6h-2.382l-2-4H57v-7.566l-14.85-8.91L45.78,22H46c1.474,0,2.75-0.81,3.444-2H52v2.764L49.382,28    h11.236L58,22.764V20H63z M14,16v-2h12v2H14z M28,37c0-3.309,2.691-6,6-6s6,2.691,6,6s-2.691,6-6,6S28,40.309,28,37z     M41.824,38.661l12.012,7.207l-15.1,6.711l-1.641-8.203C39.479,43.372,41.276,41.245,41.824,38.661z M61,61H33v-2h28V61z     M58.382,57H35.618l1-2h20.764L58.382,57z M42.712,53L55,47.539V53H42.712z M40.954,33.061C39.577,30.64,36.979,29,34,29    c-1.353,0-2.627,0.34-3.745,0.936L32.735,22H43.72L40.954,33.061z M48,18c0,1.103-0.897,2-2,2H30c-1.103,0-2-0.897-2-2v-6    c0-1.103,0.897-2,2-2h16c1.103,0,2,0.897,2,2V18z M57.382,3l-1,2h-2.764l-1-2H57.382z M54,7h2v3h-2V7z M61,12v2H50v-2H61z M50,16    h11v2H50V16z M52.618,26l1-2h2.764l1,2H52.618z M56,22h-2v-2h2V22z"/>
		<path d="M34,12c-1.654,0-3,1.346-3,3s1.346,3,3,3s3-1.346,3-3S35.654,12,34,12z M34,16c-0.552,0-1-0.449-1-1s0.448-1,1-1    s1,0.449,1,1S34.552,16,34,16z"/>
		<path d="M42,12c-1.654,0-3,1.346-3,3s1.346,3,3,3s3-1.346,3-3S43.654,12,42,12z M42,16c-0.552,0-1-0.449-1-1s0.448-1,1-1    s1,0.449,1,1S42.552,16,42,16z"/>
		<path d="M13,45c-3.309,0-6,2.691-6,6s2.691,6,6,6s6-2.691,6-6S16.309,45,13,45z M13,55c-2.206,0-4-1.794-4-4s1.794-4,4-4    s4,1.794,4,4S15.206,55,13,55z"/>
		<rect x="12" y="24" width="2" height="2"/>
		<rect x="12" y="28" width="2" height="2"/>
		<rect x="12" y="32" width="2" height="2"/>
	</g>
</g>
</svg>
