<svg height="512pt" viewBox="-29 0 512 512" width="512pt" xmlns="http://www.w3.org/2000/svg"><path d="m211.382812 154.621094c.898438 4.253906 1.382813 8.652344 1.382813 13.164062v32.15625c0 4.507813-.484375 8.910156-1.382813 13.160156h222.035157c7.757812 0 14.046875-6.289062 14.046875-14.046874v-30.382813c0-7.757813-6.289063-14.046875-14.046875-14.046875h-222.035157zm0 0" fill="#243133"/><path d="m433.414062 186.050781h-220.648437v13.890625c0 4.511719-.484375 8.910156-1.382813 13.160156h222.03125c7.757813 0 14.050782-6.289062 14.050782-14.046874v-27.050782c0 7.757813-6.292969 14.046875-14.050782 14.046875zm0 0" fill="#1d2728"/><path d="m212.765625 154.621094h-1.382813c.898438 4.253906 1.382813 8.652344 1.382813 13.164062zm0 0" fill="#1d2728"/><path d="m152.636719 263.402344-116.199219 6.269531c-15.972656 0-28.921875-12.949219-28.921875-28.921875v-113.773438c0-15.976562 12.949219-28.921874 28.921875-28.921874l116.199219 6.269531c33.71875 1.820312 60.128906 29.691406 60.128906 63.460937v32.15625c0 33.765625-26.410156 61.636719-60.128906 63.460938zm0 0" fill="#3e5359"/><path d="m152.636719 236.347656-116.199219 6.269532c-15.972656 0-28.921875-12.949219-28.921875-28.921876v27.054688c0 15.972656 12.949219 28.921875 28.921875 28.921875l116.199219-6.273437c33.71875-1.820313 60.128906-29.691407 60.128906-63.457032v-27.054687c0 33.769531-26.410156 61.640625-60.128906 63.460937zm0 0" fill="#334549"/><path d="m152.636719 104.324219c7.84375.421875 15.28125 2.269531 22.089843 5.257812 3.542969 1.554688 6.910157 3.414063 10.074219 5.558594 1.183594.800781 2.34375 1.640625 3.46875 2.519531.3125.246094.625.488282.933594.738282 1.34375 1.089843 2.640625 2.226562 3.890625 3.417968.058594.054688.117188.109375.175781.164063 9.015625 8.675781 15.445313 19.984375 18.113281 32.644531v-.003906h217.394532c-13.679688-95.835938-100.113282-147.105469-190.507813-147.105469-88.972656 0-131.089843 49.128906-152.308593 93.210937zm0 0" fill="#ffc89f"/><path d="m428.359375 213.101562h-216.976563c-2.667968 12.660157-9.097656 23.96875-18.113281 32.644532-.058593.054687-.117187.105468-.175781.160156-1.25 1.195312-2.546875 2.332031-3.890625 3.421875-.308594.25-.621094.492187-.933594.734375-1.125.878906-2.285156 1.71875-3.46875 2.523438-3.164062 2.140624-6.53125 4.003906-10.074219 5.554687-6.808593 2.988281-14.246093 4.835937-22.089843 5.261719l-101.351563 5.46875-9.945312.535156-4.902344.265625c-3.164062 0-6.207031-.515625-9.054688-1.453125-.996093-.328125-1.964843-.707031-2.90625-1.136719-.300781-.136719-.601562-.28125-.898437-.429687-3.691406 8.941406-7.054687 17.042968-9.769531 23.574218-3.226563 7.761719 2.480468 16.304688 10.890625 16.304688h29.855469s13.121093 70.101562 22.582031 95.082031c15.722656 41.507813 78.339843 26.25 78.339843 26.25l13.582032 76.621094h204.765625l-19.015625-123.078125c43.988281-63.75 66.683594-120.03125 73.550781-168.304688zm0 0" fill="#ffc89f"/><g fill="#f7b081"><path d="m238.269531 7.515625c-6.191406 0-12.144531.246094-17.886719.703125 83.523438 6.410156 159.566407 57.019531 172.324219 146.40625h36.070313c-13.679688-95.839844-100.113282-147.109375-190.507813-147.109375zm0 0"/><path d="m119.402344 427.863281s-2.414063.589844-6.40625 1.21875c2.269531.433594 4.546875.761719 6.800781 1zm0 0"/><path d="m27.371094 268.214844c-.988282-.328125-1.957032-.707032-2.894532-1.132813-.300781-.140625-.601562-.28125-.898437-.429687-.25.609375-.496094 1.203125-.746094 1.804687zm0 0"/><path d="m428.359375 213.101562h-36.070313c-6.871093 48.273438-29.5625 104.554688-73.550781 168.304688l19.015625 123.078125h36.070313l-19.015625-123.078125c43.988281-63.75 66.683594-120.03125 73.550781-168.304688zm0 0"/></g><path d="m152.636719 104.324219-13.789063-.742188c21.859375 12.234375 36.527344 35.589844 36.527344 62.238281v36.082032c0 26.648437-14.667969 50.007812-36.527344 62.242187l13.789063-.746093c33.71875-1.820313 60.128906-29.691407 60.128906-63.457032v-32.15625c0-33.769531-26.410156-61.640625-60.128906-63.460937zm0 0" fill="#80e7ff"/><path d="m167.921875 233.632812c-6.394531 12.839844-16.550781 23.503907-29.074219 30.511719l13.789063-.742187c33.71875-1.820313 60.128906-29.695313 60.128906-63.460938v-27.046875c-.003906 28.457031-18.761719 52.722657-44.84375 60.738281zm0 0" fill="#47dbf4"/><path d="m51.285156 98.855469-14.847656-.800781c-15.972656 0-28.921875 12.949218-28.921875 28.921874v113.773438c0 15.972656 12.949219 28.921875 28.921875 28.921875l14.847656-.800781zm0 0" fill="#243133"/><path d="m36.4375 242.617188c-15.972656 0-28.921875-12.949219-28.921875-28.921876v27.054688c0 15.972656 12.949219 28.921875 28.921875 28.921875l14.847656-.804687v-27.050782zm0 0" fill="#1d2728"/><path d="m435.183594 147.199219c-7.921875-44.363281-31.503906-81.667969-68.515625-108.179688-35.128907-25.164062-80.726563-39.019531-128.402344-39.019531-41.761719 0-77.425781 10.605469-106 31.527344-20.664063 15.125-37.742187 35.78125-50.832031 61.429687l-29.746094-1.605469-14.847656-.800781c-.132813-.007812-.269532-.011719-.402344-.011719-7.535156 0-14.542969 2.296876-20.359375 6.230469-9.695313 6.554688-16.078125 17.648438-16.078125 30.203125v113.777344c0 11.734375 5.578125 22.191406 14.222656 28.859375-2.742187 6.628906-5.242187 12.660156-7.351562 17.730469-2.480469 5.96875-1.820313 12.742187 1.765625 18.117187 3.589843 5.378907 9.59375 8.589844 16.0625 8.589844h23.640625c3.453125 17.808594 13.742187 69.039063 21.765625 90.226563 7.535156 19.890624 25.347656 31.480468 51.511719 33.523437 10.957031.855469 21.128906-.152344 27.78125-1.160156l12.257812 69.160156c.636719 3.589844 3.753906 6.203125 7.398438 6.203125h85.695312c4.148438 0 7.511719-3.363281 7.511719-7.515625 0-4.148437-3.363281-7.515625-7.511719-7.515625h-79.394531l-12.480469-70.417969c-.363281-2.042969-1.554688-3.84375-3.292969-4.980469-1.738281-1.136718-3.871093-1.5-5.886719-1.007812-.5625.136719-56.3125 13.28125-69.53125-21.613281-9.117187-24.066407-22.09375-93.105469-22.222656-93.800781-.667968-3.554688-3.769531-6.132813-7.386718-6.132813h-29.855469c-2.066407 0-3.179688-1.332031-3.5625-1.902344-.378907-.570312-1.179688-2.101562-.386719-4.003906 2.027344-4.878906 4.414062-10.636719 7.035156-16.964844.054688.011719.113282.023438.171875.035157.320313.078124.648438.140624.972657.207031.496093.105469.996093.203125 1.496093.289062.332031.054688.660157.101563.992188.148438.542969.078125 1.089843.136719 1.636719.1875.285156.027343.566406.058593.855468.078125.835938.058594 1.679688.09375 2.523438.09375.136718 0 .273437 0 .40625-.007813l54.238281-2.929687c4.144531-.222656 7.324219-3.761719 7.101563-7.90625-.226563-4.148438-3.769532-7.324219-7.910157-7.101563l-31.472656 1.699219v-154.152344l77.835937 4.203125c19.304688 11.480469 31.226563 32.332031 31.226563 54.832031v36.082032c0 22.5-11.921875 43.355468-31.226563 54.835937l-16.34375.882813c-4.140624.222656-7.320312 3.761718-7.097656 7.90625.226563 4.144531 3.777344 7.320312 7.910156 7.101562l31.941407-1.726562c1.117187-.058594 2.234375-.148438 3.34375-.261719.445312-.046875.882812-.109375 1.324219-.160156.652343-.078125 1.308593-.15625 1.957031-.25.570312-.085938 1.136719-.1875 1.703125-.285157.5-.089843 1-.171874 1.5-.269531.664062-.128906 1.324218-.273437 1.980468-.421875.382813-.085937.761719-.167968 1.140626-.261718.75-.183594 1.496093-.378907 2.238281-.585938.265625-.074219.53125-.144531.796875-.222656.835937-.242188 1.660156-.5 2.480468-.769532.160157-.054687.320313-.105468.476563-.160156.910156-.304687 1.808594-.632812 2.699219-.972656.066406-.027344.132812-.050781.199218-.078125.957032-.371094 1.90625-.761719 2.839844-1.171875.007813-.003906.015625-.003906.023438-.007812.011718-.003907.019531-.011719.03125-.015626.96875-.425781 1.925781-.871093 2.871094-1.335937.015624-.011719.035156-.019531.050781-.027344.945312-.46875 1.875-.953125 2.796875-1.460937.027344-.015625.054687-.03125.085937-.046875.902344-.5 1.796875-1.019531 2.671875-1.558594.058594-.035156.109375-.066406.167969-.101563.855469-.527343 1.703125-1.074218 2.539063-1.636718.015624-.011719.03125-.019532.050781-.035156.070312-.046876.140625-.097657.210937-.148438 1.117188-.757812 2.210938-1.550781 3.277344-2.375.128906-.097656.261719-.195312.390625-.292969.035156-.027343.070313-.058593.105469-.085937.289062-.226563.578125-.449219.859375-.679688.027343-.019531.054687-.039062.082031-.0625.175781-.144531.347656-.296875.523438-.441406.945312-.78125 1.867187-1.589844 2.773437-2.417969.332031-.304687.675781-.605469 1-.914062.078125-.070313.15625-.144531.246094-.230469.726562-.699219 1.433593-1.417969 2.128906-2.144531.132813-.140625.265625-.285157.402344-.425781 1.421875-1.511719 2.773437-3.082032 4.046875-4.699219.042968-.050781.085937-.105469.125-.15625 2.011718-2.566407 3.835937-5.253907 5.46875-8.054688.011718-.027343.027344-.050781.042968-.078125.539063-.925781 1.054688-1.863281 1.550782-2.816406.039062-.074219.074218-.148438.113281-.222656.417969-.808594.820313-1.628906 1.207031-2.457032.097656-.207031.195313-.410156.292969-.621093.386719-.851563.761719-1.707031 1.117187-2.574219.132813-.324219.253907-.648438.382813-.972656.207031-.539063.414063-1.078125.613281-1.621094.164063-.453125.328125-.90625.484375-1.367188.132813-.382812.253907-.773437.378907-1.160156.125-.390625.261718-.777344.382812-1.171875h202.328125c-8.59375 48.121094-32.421875 100.722657-70.921875 156.523438-1.089844 1.578125-1.535156 3.519531-1.242188 5.414062l17.675782 114.417969h-80.25c-4.152344 0-7.515625 3.367188-7.515625 7.515625 0 4.152344 3.363281 7.515625 7.515625 7.515625h89.015625c2.191406 0 4.277343-.957031 5.703125-2.625 1.429687-1.664062 2.058594-3.871094 1.722656-6.035156l-18.5625-120.136719c39.441406-57.699219 63.667969-112.367187 72.113281-162.65625 11.242188-.71875 20.175781-10.070313 20.175781-21.492187v-30.386719c0-11.289063-8.730468-20.566407-19.792968-21.46875zm-398.933594 114.957031c-.660156-.007812-1.308594-.050781-1.949219-.117188-.210937-.019531-.421875-.050781-.632812-.078124-.4375-.054688-.867188-.125-1.296875-.207032-.230469-.046875-.460938-.089844-.6875-.144531-.449219-.101563-.886719-.21875-1.324219-.347656-.175781-.054688-.351563-.097657-.527344-.152344-.570312-.1875-1.128906-.394531-1.675781-.628906-.09375-.039063-.191406-.078125-.285156-.121094-7.550782-3.308594-12.84375-10.851563-12.84375-19.609375v-113.773438c0-11.742187 9.503906-21.304687 21.21875-21.40625l7.523437.40625v155.773438zm146.640625-60.253906v-36.082032c0-19.566406-7.292969-38.125-19.925781-52.351562.414062.105469.828125.210938 1.238281.328125.210937.054687.421875.113281.632813.175781.65625.191406 1.3125.394532 1.960937.609375.121094.039063.242187.078125.363281.121094.71875.242187 1.433594.5 2.144532.773437.046874.015626.089843.035157.136718.054688.757813.292969 1.511719.601562 2.261719.929688.003906.003906.011719.007812.015625.007812 2.320312 1.019531 4.578125 2.199219 6.738281 3.519531 0 .003907.003907.003907.007813.007813.71875.4375 1.425781.894531 2.121094 1.367187 1.046874.707031 2.070312 1.449219 3.039062 2.203125.011719.011719.023438.019532.035156.03125.179688.136719.351563.273438.523438.414063.15625.121093.308594.246093.460937.371093 0 0 .003907.003907.003907.003907.464843.378906.921874.765625 1.367187 1.15625.144531.125.292969.253906.433594.382812.402343.355469.792969.714844 1.175781 1.074219.242188.230469.488281.457031.726562.695312.359376.347657.710938.707032 1.0625 1.066407.210938.21875.421876.4375.632813.65625.023437.027343.050781.054687.078125.082031.363281.390625.71875.789062 1.070312 1.1875.128907.144531.253907.285156.382813.425781.082031.097657.164063.191407.246094.289063.449219.523437.890625 1.058594 1.320312 1.601562.066407.082032.132813.164063.195313.246094l.140625.1875c.429687.550781.851562 1.113281 1.261719 1.679688.167968.234374.328124.476562.496093.714843.300781.4375.601563.875.894531 1.320313.179688.273437.351563.550781.523438.828125.265625.417969.527344.84375.78125 1.269531.171875.292969.339844.585938.507812.878906.246094.429688.480469.859375.714844 1.296875.15625.296875.316406.59375.46875.894531.230469.449219.453125.90625.667969 1.363282.140625.289062.28125.578125.414063.871094.234374.507812.449218 1.023437.667968 1.539062.0625.144531.121094.292969.1875.4375.125.304688.242188.613281.363282.921875.140624.363281.277343.722656.410156 1.089844.160156.429687.3125.867187.460937 1.304687.082031.242188.15625.484375.234375.730469.164063.503906.324219 1.007813.472656 1.519531.003907.011719.007813.023438.007813.035156.386719 1.328126.722656 2.675782 1.011719 4.042969 0 0 .003906.003907.003906.007813.199219.953125.375 1.90625.527344 2.867187 0 .011719.003906.023438.003906.035157.140625.886718.253906 1.773437.351562 2.664062.015626.132812.027344.265625.042969.402344.078125.777344.136719 1.550781.183594 2.328125.011719.183593.023437.367187.035156.550781.046875.917969.070313 1.835938.070313 2.753906v32.15625c0 .917969-.027344 1.835938-.070313 2.753906-.011719.183594-.023437.367188-.035156.550782-.046875.777344-.105469 1.554687-.183594 2.328125-.015625.132812-.027343.269531-.042969.402343-.097656.890626-.210937 1.777344-.351562 2.664063 0 .011719-.003906.023437-.003906.035156-.152344.957031-.328125 1.910157-.527344 2.863281 0 .003907-.003906.007813-.003906.011719-.289063 1.367188-.628906 2.722657-1.015625 4.058594 0 .003906 0 .007813-.003907.015625-.148437.515625-.3125 1.027344-.476562 1.539062-.074219.238282-.152344.472657-.230469.707032-.148437.441406-.304687.882812-.464843 1.320312-.132813.359375-.265626.71875-.40625 1.078125-.121094.308594-.242188.617188-.367188.925781-.0625.144532-.121094.292969-.183594.4375-.21875.515626-.4375 1.03125-.667968 1.535157-.132813.296875-.277344.585937-.414063.875-.21875.457031-.4375.914062-.667969 1.363281-.152344.300781-.3125.597656-.472656.898438-.230469.433593-.46875.863281-.710938 1.292968-.167968.292969-.335937.585938-.507812.878906-.253906.425782-.515625.851563-.78125 1.269532-.171875.277344-.347656.558594-.523438.832031-.292968.441406-.59375.882813-.898437 1.316406-.164063.238281-.324219.480469-.492187.714844-.410157.566406-.832032 1.128906-1.261719 1.679687-.054688.074219-.109375.148438-.164063.21875-.042968.054688-.085937.109376-.128906.164063-.453125.570313-.917969 1.132813-1.394531 1.6875-.058594.070313-.121094.140625-.179688.210937-.140625.15625-.28125.3125-.417969.46875-.367187.414063-.730468.824219-1.109374 1.222657-.003907.007812-.015626.019531-.019532.027343-.214844.226563-.4375.449219-.65625.675782-.347656.359375-.699218.71875-1.058594 1.070312-.238281.230469-.480468.460938-.722656.6875-.386718.363282-.777344.722656-1.179687 1.078125-.140625.128907-.285157.253907-.429688.382813-.453125.390625-.914062.78125-1.382812 1.164062-.140625.117188-.285157.230469-.429688.347656-.179687.144532-.359375.289063-.546875.433594-.023437.015625-.042968.03125-.066406.050782-.957031.746093-1.96875 1.480468-3.011719 2.183593-2.789062 1.890625-5.773437 3.539063-8.875 4.898438-.753906.332031-1.511719.640625-2.273437.9375-.042969.015625-.082032.03125-.121094.046875-.714844.277344-1.433594.535156-2.15625.777344-.117188.039062-.234375.078124-.351562.117187-.65625.21875-1.3125.421875-1.972657.613281-.207031.0625-.417969.117188-.625.175782-.414062.117187-.828125.21875-1.242187.324218 12.632812-14.222656 19.925781-32.785156 19.925781-52.351562zm257.058594-2.847656c0 3.601562-2.933594 6.53125-6.535157 6.53125h-213.363281c.03125-.375.046875-.75.070313-1.125.027344-.453126.0625-.910157.082031-1.367188.046875-1.050781.074219-2.101562.074219-3.152344v-32.15625c0-1.050781-.027344-2.101562-.074219-3.152344-.019531-.457031-.054687-.914062-.082031-1.367187-.023438-.378906-.039063-.753906-.070313-1.128906h101.332031c4.152344 0 7.515626-3.363281 7.515626-7.515625 0-4.148438-3.363282-7.511719-7.515626-7.511719h-104.167968c-.128906-.425781-.273438-.839844-.410156-1.257813-.113282-.355468-.226563-.707031-.34375-1.058593-.160157-.46875-.328126-.9375-.5-1.40625-.191407-.519531-.386719-1.039063-.589844-1.558594-.132813-.339844-.261719-.683594-.402344-1.023437-.351562-.855469-.722656-1.703126-1.105469-2.542969-.101562-.226563-.210937-.449219-.3125-.671875-.375-.796875-.761719-1.589844-1.167969-2.371094-.050781-.101562-.097656-.199219-.148437-.296875-.488281-.933594-.996094-1.859375-1.527344-2.769531-.03125-.050782-.0625-.101563-.089843-.15625-.527344-.902344-1.074219-1.792969-1.640626-2.671875-.015624-.023438-.03125-.050781-.046874-.074219-1.15625-1.789062-2.394532-3.523438-3.710938-5.207031-.0625-.082031-.125-.160157-.1875-.242188-.652344-.828125-1.320312-1.644531-2.011719-2.441406-.011719-.015625-.023437-.027344-.035156-.039063-.636719-.734374-1.292969-1.457031-1.960937-2.167968-.144532-.152344-.289063-.304688-.433594-.457032-.691406-.726562-1.398438-1.445312-2.125-2.144531-.074219-.070312-.148438-.140625-.230469-.214843-.332031-.3125-.679687-.621094-1.019531-.933594-.894532-.820313-1.808594-1.617188-2.746094-2.390625-.183594-.152344-.359375-.308594-.542969-.460938-.027343-.023437-.054687-.042969-.085937-.066406-.277344-.222656-.558594-.445313-.839844-.664063-.035156-.027343-.070312-.058593-.105469-.085937-.121093-.09375-.25-.183594-.375-.277344-1.066406-.820312-2.15625-1.613281-3.265625-2.375-.082031-.054687-.160156-.113281-.242187-.167969-.019531-.011718-.039063-.023437-.058594-.039062-.832031-.558594-1.675781-1.101562-2.527344-1.628906-.058593-.035156-.113281-.070313-.171875-.105469-.875-.535156-1.765625-1.054687-2.667968-1.550781-.03125-.019532-.0625-.035156-.09375-.050782-.914063-.507812-1.84375-.992187-2.785157-1.457031-.023437-.011719-.042969-.023437-.066406-.035156-.9375-.460937-1.886719-.902344-2.847656-1.324219-.015625-.007812-.03125-.015625-.046875-.023437-.011719-.003907-.027344-.007813-.039063-.015625-.929687-.40625-1.867187-.792969-2.8125-1.160156-.074219-.027344-.148437-.058594-.222656-.085938-.886719-.339844-1.78125-.664062-2.683594-.96875-.160156-.054688-.324219-.109375-.488281-.160156-.820312-.269532-1.640625-.53125-2.472656-.769532-.265625-.078124-.535156-.152343-.804688-.226562-.738281-.203125-1.480468-.402344-2.230468-.582031-.378907-.09375-.761719-.175781-1.144532-.261719-.65625-.148438-1.3125-.296875-1.976562-.425781-.5-.09375-1-.179688-1.503906-.265625-.566407-.097656-1.128907-.199219-1.699219-.285156-.652344-.09375-1.304688-.171876-1.960938-.25-.441406-.050782-.875-.117188-1.320312-.160157-1.109375-.113281-2.226563-.203125-3.34375-.261719l-55.074219-2.972656c29.015625-52.3125 76.160156-78.816406 140.296875-78.816406 44.5625 0 87.054687 12.855469 119.652344 36.207031 32.976562 23.621094 54.273437 56.632813 61.96875 95.871094h-68.445313c-4.152344 0-7.515625 3.363281-7.515625 7.511719 0 4.152344 3.363281 7.515625 7.515625 7.515625h81.972656c3.601563 0 6.535157 2.933593 6.535157 6.535156zm0 0"/></svg>