<?xml version="1.0" encoding="iso-8859-1"?>
<!-- Generator: Adobe Illustrator 19.0.0, SVG Export Plug-In . SVG Version: 6.00 Build 0)  -->
<svg version="1.1" id="Capa_1" xmlns="http://www.w3.org/2000/svg" xmlns:xlink="http://www.w3.org/1999/xlink" x="0px" y="0px"
	 viewBox="0 0 512.001 512.001" style="enable-background:new 0 0 512.001 512.001;" xml:space="preserve">
<circle style="fill:#34E881;" cx="132.181" cy="161.831" r="100.71"/>
<path style="fill:#1FDB6A;" d="M232.892,161.83c0,55.621-45.095,100.705-100.715,100.705c-5.449,0-10.797-0.432-16.015-1.274
	c48.015-7.656,84.7-49.259,84.7-99.431s-36.686-91.785-84.7-99.441c5.218-0.843,10.566-1.274,16.015-1.274
	C187.797,61.114,232.892,106.209,232.892,161.83z"/>
<path style="fill:#276FD8;" d="M504.362,325.821l-8.342-55.218c-0.738-4.884-4.935-8.495-9.874-8.495h-30.542
	c-7.135-22.395-27.343-38.705-51.494-40.316c-1.981-0.132-3.963-0.264-5.944-0.396c-61.349-4.09-123.046-10.922-184.267-6.841
	c-15.876,1.058-31.751,2.117-47.627,3.175c-20.309,1.354-40.618,2.708-60.928,4.062c-24.152,1.61-44.36,17.92-51.494,40.316H25.856
	c-4.939,0-9.136,3.611-9.874,8.495L7.64,325.821c-0.913,6.041,3.765,11.478,9.874,11.478h25.804l-6.12,48.145
	c-4.414,34.723,22.645,65.44,57.648,65.44h52.34c11.788,0,23.493-1.976,34.627-5.847l69.03-23.997h7.769l69.03,23.997
	c11.134,3.871,22.839,5.847,34.627,5.847h52.34c35.003,0,62.062-30.716,57.648-65.44l-6.12-48.145h28.352
	C500.598,337.299,505.275,331.862,504.362,325.821z"/>
<path style="fill:#0C5CBC;" d="M414.605,450.881H395.73c19.106-12.844,30.705-35.783,27.544-60.588l-15.643-123.102
	c-2.609-20.47-14.841-37.739-31.929-47.292l28.407,1.897c27.735,1.846,50.282,23.079,53.784,50.654l14.359,112.998
	C476.668,420.166,449.615,450.881,414.605,450.881z"/>
<path d="M101.523,168.945c4.858-13.7,9.328-29.247,14.088-42.753c1.361-3.789,3.595-5.733,7.385-5.733
	c3.984,0,8.454,3.983,8.454,8.162c0,0.972-0.292,2.04-0.68,2.818l-19.919,56.162c-2.041,5.733-5.149,8.551-9.425,8.551
	c-3.984,0-6.899-2.623-8.745-7.773l-20.6-57.133c-0.291-1.069-0.485-2.138-0.485-3.109c0-5.149,2.623-7.773,7.773-7.773
	c3.886,0,6.511,1.943,7.774,5.733L101.523,168.945z"/>
<path d="M135.337,128.621c0-5.539,3.303-8.065,9.619-8.065h19.336c16.325,0,25.36,11.077,25.36,22.64
	c0,7.384-3.595,14.866-11.465,19.919l9.425,20.599c0.68,1.652,1.263,3.401,1.263,5.052c0,4.372-2.332,7.482-7.385,7.482
	c-2.72,0-5.344-0.874-7.093-4.275l-12.243-24.874h-11.271v20.502c0,5.733-2.526,8.551-7.676,8.551c-5.247,0-7.871-2.818-7.871-8.551
	L135.337,128.621L135.337,128.621z M150.884,136.103v15.546h14.089c5.441,0,8.745-4.372,8.745-8.453
	c0-3.595-2.624-7.093-8.745-7.093H150.884z"/>
<path d="M511.804,324.696l-8.343-55.218c-1.304-8.631-8.587-14.896-17.316-14.896h-25.304
	c-9.398-22.534-30.945-38.613-56.231-40.299c-1.058-0.071-2.116-0.141-3.175-0.212c-54.264-3.618-110.739-12.179-165.06-8.557
	c-1.78,0.119-3.559,0.237-5.339,0.356c6.022-13.462,9.379-28.366,9.379-44.042c0-59.682-48.555-108.237-108.236-108.237
	c-41.021,0-78.034,22.744-96.595,59.357c-1.879,3.707-0.398,8.236,3.31,10.115c3.706,1.879,8.236,0.398,10.115-3.31
	c15.983-31.526,47.851-51.111,83.17-51.111c51.382,0,93.185,41.802,93.185,93.185c0,16.392-4.259,31.806-11.722,45.202
	c-36.266,2.418-72.533,4.835-108.799,7.253C90.846,215.215,78,220.568,67.72,228.975c-16.176-15.507-26.842-36.772-28.498-60.579
	c-0.289-4.147-3.884-7.272-8.03-6.985c-4.146,0.289-7.274,3.883-6.985,8.03c1.864,26.808,13.558,51.749,32.958,70.403
	c-3.451,4.487-6.34,9.431-8.553,14.738H25.856c-8.729,0-16.011,6.265-17.316,14.896l-8.343,55.218
	c-0.762,5.05,0.71,10.165,4.041,14.036c3.33,3.871,8.169,6.091,13.275,6.091h17.261l-5.043,39.671
	c-2.377,18.693,3.405,37.525,15.861,51.665s30.408,22.25,49.252,22.25h52.34c12.659,0,25.141-2.108,37.099-6.265l67.829-23.579
	h5.227l67.829,23.579c3.927,1.366,8.215-0.71,9.58-4.637c1.365-3.926-0.711-8.215-4.637-9.58l-69.03-23.997
	c-0.795-0.276-1.63-0.417-2.471-0.417h-7.769c-0.841,0-1.677,0.141-2.471,0.417l-69.029,23.997
	c-10.365,3.603-21.184,5.43-32.157,5.43h-52.34c-14.523,0-28.358-6.25-37.958-17.148c-9.6-10.897-14.056-25.41-12.224-39.817
	l6.109-48.059l10.43-74.465c6.371-19.188,23.866-33.183,44.642-34.568c43.183-2.879,86.366-5.758,129.548-8.636
	c54.973-3.665,112.493,4.922,167.781,8.607c0.145,0.01,0.291,0.019,0.436,0.029c24.084,1.606,43.773,20.15,46.817,44.095
	l14.364,112.996c1.831,14.407-2.624,28.92-12.224,39.817c-9.6,10.898-23.435,17.148-37.958,17.148h-32.506
	c-4.156,0-7.526,3.37-7.526,7.526s3.369,7.526,7.526,7.526h32.508c18.844,0,36.796-8.11,49.252-22.25s18.238-32.971,15.861-51.665
	l-5.043-39.671h19.81c5.106,0,9.945-2.22,13.275-6.091C511.094,334.862,512.566,329.746,511.804,324.696z M17.514,329.773
	c-0.982,0-1.59-0.536-1.865-0.856c-0.275-0.319-0.715-1.001-0.568-1.972l8.343-55.218c0.183-1.213,1.206-2.093,2.433-2.093h18.519
	c-0.097,0.62-0.2,1.238-0.279,1.864l-7.408,58.274L17.514,329.773L17.514,329.773z M496.353,328.917
	c-0.275,0.32-0.883,0.856-1.865,0.856h-19.259l-8.424-60.138h19.34c1.226,0,2.249,0.88,2.433,2.093l8.343,55.217
	C497.068,327.916,496.628,328.597,496.353,328.917z"/>
<path d="M282.431,269.634h-63.178c-4.156,0-7.526-3.369-7.526-7.526s3.369-7.526,7.526-7.526h63.178
	c4.156,0,7.526,3.369,7.526,7.526S286.587,269.634,282.431,269.634z"/>
<path d="M339.564,345.203c-2.125,0-4.237-0.895-5.726-2.638c-2.7-3.16-2.326-7.911,0.834-10.61l36.41-31.099
	c3.16-2.7,7.911-2.326,10.61,0.834c2.7,3.16,2.326,7.911-0.834,10.61l-36.41,31.099C343.031,344.61,341.293,345.203,339.564,345.203
	z"/>
<path d="M323.224,406.233c-2.125,0-4.237-0.895-5.726-2.638c-2.7-3.16-2.326-7.911,0.834-10.61l90.934-77.673
	c3.161-2.7,7.911-2.326,10.61,0.834c2.7,3.16,2.326,7.911-0.834,10.61l-90.934,77.673
	C326.691,405.64,324.953,406.233,323.224,406.233z"/>
<path d="M113.978,345.203c-2.125,0-4.237-0.895-5.726-2.638c-2.7-3.16-2.326-7.911,0.834-10.61l36.409-31.099
	c3.161-2.7,7.911-2.326,10.61,0.834c2.7,3.16,2.326,7.911-0.834,10.61l-36.409,31.099
	C117.445,344.61,115.707,345.203,113.978,345.203z"/>
<path d="M97.638,406.233c-2.125,0-4.237-0.895-5.726-2.638c-2.7-3.16-2.326-7.911,0.834-10.61l90.934-77.673
	c3.16-2.7,7.911-2.326,10.61,0.834c2.7,3.16,2.326,7.911-0.834,10.61l-90.934,77.673C101.105,405.64,99.367,406.233,97.638,406.233z
	"/>
<g>
</g>
<g>
</g>
<g>
</g>
<g>
</g>
<g>
</g>
<g>
</g>
<g>
</g>
<g>
</g>
<g>
</g>
<g>
</g>
<g>
</g>
<g>
</g>
<g>
</g>
<g>
</g>
<g>
</g>
</svg>
