<svg height="511pt" viewBox="0 -38 511.99994 511" width="511pt" xmlns="http://www.w3.org/2000/svg"><path d="m433.703125 285.121094v112.0625h-313.148437v-218.101563h297.058593c8.886719 0 16.089844 7.203125 16.089844 16.085938zm0 0" fill="#e6e6e6"/><path d="m192.773438 179.082031h-72.21875v218.101563h72.21875zm0 0" fill="#dbdbdb"/><path d="m408.691406 286.933594v75.550781c0 3.691406-2.996094 6.6875-6.6875 6.6875h-281.449218v-165.078125h288.136718zm0 0" fill="#76b1cb"/><path d="m408.691406 286.933594v-22.792969c-3.039062.347656-6.152344.457031-9.320312.296875-28.484375-1.453125-51.574219-24.542969-53.023438-53.027344-.125-2.472656-.089844-4.917968.09375-7.316406h-35.058594c-.09375 1.984375-.148437 3.980469-.113281 5.996094.851563 48.765625 40.660157 88.574218 89.421875 89.421875 2.695313.046875 5.363282-.027344 8-.210938zm0 0" fill="#5ba1ba"/><path d="m192.773438 369.171875v-165.078125h-72.21875v165.078125zm0 0" fill="#5ba1ba"/><path d="m468.71875 398.714844v9.90625c0 10.257812-8.320312 18.578125-18.578125 18.578125h-329.585937v-33.015625h343.632812c2.503906 0 4.53125 2.027344 4.53125 4.53125zm0 0" fill="#a6a6a6"/><path d="m159.574219 159.964844v251.335937c0 8.785157-7.113281 15.898438-15.898438 15.898438h-120.273437c-8.785156 0-15.898438-7.113281-15.898438-15.898438v-251.335937c0-8.785156 7.113282-15.898438 15.898438-15.898438h120.273437c8.785157 0 15.898438 7.113282 15.898438 15.898438zm0 0" fill="#254f5d"/><path d="m7.503906 188.363281h152.070313v189.8125h-152.070313zm0 0" fill="#75dbad"/><path d="m32.515625 230.765625v-42.398437h-25.011719v189.808593h152.070313v-20.351562c-70.171875 0-127.058594-56.886719-127.058594-127.058594zm0 0" fill="#15ce71"/><path d="m503.84375 177.671875c.371094 1.761719-.980469 3.410156-2.769531 3.410156h-30.296875c-1.21875 0-2.308594-.78125-2.679688-1.941406-5.492187-17.296875-19.148437-30.964844-36.457031-36.445313-1.160156-.371093-1.941406-1.472656-1.941406-2.691406v-30.304687c0-1.800781 1.652343-3.140625 3.414062-2.78125 35.496094 7.292969 63.4375 35.257812 70.730469 70.753906zm0 0" fill="#fe6c56"/><path d="m473.925781 126.972656-22.144531 27.148438c3.816406 3.375 7.148438 7.273437 9.933594 11.566406l22.808594-27.964844c-3.234376-3.867187-6.773438-7.464844-10.597657-10.75zm0 0" fill="#e24333"/><path d="m56.527344 311.144531c0 6.628907-5.375 12.003907-12.007813 12.003907-6.628906 0-12.003906-5.375-12.003906-12.003907 0-6.632812 5.375-12.007812 12.003906-12.007812 6.632813 0 12.007813 5.375 12.007813 12.007812zm0 0" fill="#f3c957"/><path d="m305.640625 15.964844v20.089844c0 4.402343-3.558594 7.964843-7.960937 7.964843h-20.089844c-4.402344 0-7.964844-3.5625-7.964844-7.964843v-20.089844c0-4.402344 3.5625-7.960938 7.964844-7.960938h20.089844c4.402343 0 7.960937 3.558594 7.960937 7.960938zm0 0" fill="#75dbad"/><path d="m244.613281 54.984375v20.089844c0 4.402343-3.5625 7.964843-7.964843 7.964843h-20.085938c-4.402344 0-7.964844-3.5625-7.964844-7.964843v-20.089844c0-4.402344 3.5625-7.964844 7.964844-7.964844h20.085938c4.402343 0 7.964843 3.5625 7.964843 7.964844zm0 0" fill="#75dbad"/><path d="m501.082031 211.097656c1.800781 0 3.140625 1.648438 2.78125 3.410156-8.625 41.960938-46.101562 73.382813-90.78125 72.613282-48.761719-.847656-88.570312-40.65625-89.421875-89.421875-.769531-44.679688 30.664063-82.15625 72.613282-90.78125 1.761718-.359375 3.414062.980469 3.414062 2.78125v30.304687c0 1.210938-.773438 2.3125-1.933594 2.679688-23.539062 7.464844-40.347656 30.035156-39.015625 56.335937 1.449219 28.484375 24.539063 51.574219 53.023438 53.027344 26.300781 1.328125 48.871093-15.476563 56.335937-39.019531.371094-1.160156 1.46875-1.929688 2.679688-1.929688zm0 0" fill="#f3c957"/><path d="m510.21875 206.246094c-1.425781-1.683594-3.515625-2.652344-5.722656-2.652344h-35.828125c-3.371094 0-6.328125 2.25-7.230469 5.496094-3.222656 11.621094-10.59375 21.289062-20.234375 27.59375v-41.515625c0-5.09375-1.628906-9.8125-4.382813-13.671875l14.25-17.472656c4.789063 5.425781 8.386719 11.921874 10.371094 19.066406.902344 3.25 3.859375 5.496094 7.230469 5.496094h35.808594c2.203125 0 4.296875-.96875 5.722656-2.652344 1.425781-1.679688 2.039063-3.902344 1.679687-6.078125-3.5625-21.472657-13.988281-40.527344-28.953124-54.890625l11.300781-13.851563v8.941407c0 4.144531 3.359375 7.503906 7.503906 7.503906s7.503906-3.359375 7.503906-7.503906v-30.015626c0-3.171874-2-6.003906-4.988281-7.066406-.949219-.339844-1.9375-.453125-2.902344-.40625-.203125-.015625-.40625-.03125-.613281-.03125h-27.015625c-4.140625 0-7.503906 3.363282-7.503906 7.503906 0 4.144532 3.363281 7.503907 7.503906 7.503907h12.210938l-14.585938 17.882812c-11.808594-8.292969-25.527344-14.074219-40.414062-16.542969-2.179688-.359374-4.402344.253907-6.082032 1.679688-1.683594 1.425781-2.652344 3.519531-2.652344 5.722656v35.828125c0 3.371094 2.25 6.328125 5.5 7.230469 4.195313 1.164062 8.164063 2.898438 11.832032 5.089844l-14.863282 18.222656c-2.226562-.699219-4.59375-1.078125-7.050781-1.078125h-44.761719c6.234376-10.617187 16.425782-18.789063 28.839844-22.234375 3.25-.902344 5.5-3.859375 5.5-7.230469v-35.828125c0-2.203125-.96875-4.296875-2.652344-5.722656-1.683593-1.425781-3.90625-2.039062-6.078124-1.679688-22.757813 3.777344-43.59375 15.554688-58.671876 33.171876-9.835937 11.496093-16.804687 25.050781-20.519531 39.523437h-23.332031v-31.515625c0-4.144531-3.359375-7.503906-7.503906-7.503906-4.144532 0-7.503906 3.359375-7.503906 7.503906v31.515625h-46.585938v-81.039063h2.304688c8.53125 0 15.472656-6.9375 15.472656-15.46875v-20.082031c0-8.53125-6.941406-15.46875-15.472656-15.46875h-20.082032c-8.53125 0-15.46875 6.9375-15.46875 15.46875v20.082031c0 8.53125 6.9375 15.46875 15.46875 15.46875h2.769532v81.039063h-52.257813v-11.613281c0-12.902344-10.5-23.402344-23.402344-23.402344h-120.273437c-12.902344 0-23.402344 10.5-23.402344 23.402344v251.335937c0 12.902344 10.5 23.402344 23.402344 23.402344h426.738281c14.382813 0 26.082031-11.699219 26.082031-26.082031v-14.4375c0-4.144532-3.359375-7.503906-7.503906-7.503906h-27.511719v-95.691407c13.71875-3.832031 26.554688-10.609375 37.523438-19.996093 17.613281-15.074219 29.394531-35.910157 33.167969-58.667969.359374-2.175781-.253907-4.398438-1.679688-6.078125zm-294.117188-131.175782v-20.082031c0-.257812.207032-.464843.460938-.464843h20.085938c.253906 0 .460937.210937.460937.464843v20.082031c0 .257813-.207031.464844-.460937.464844h-20.085938c-.253906 0-.460938-.207031-.460938-.464844zm210.097657 120.097657v48.046875c-3.238281.792968-6.585938 1.257812-10.003907 1.367187v-37.800781l9.972657-12.226562c.011719.203124.03125.40625.03125.613281zm-35.609375 43.007812 10.597656-12.992187v17.503906c-3.738281-1.085938-7.289062-2.609375-10.597656-4.511719zm-21.863282-26.578125h24.175782l-14.023438 17.191406c-4.492187-4.914062-7.972656-10.753906-10.152344-17.191406zm126.421876-38.019531h-21.050782c-3.035156-7.980469-7.664062-15.191406-13.464844-21.277344l12.78125-15.671875c10.179688 10.058594 17.777344 22.722656 21.734376 36.949219zm-57.945313-36.890625v-21.066406c8.910156 2.476562 17.207031 6.386718 24.632813 11.460937l-12.75 15.632813c-3.714844-2.40625-7.695313-4.4375-11.882813-6.027344zm-23.902344 49.898438-8.160156 10.003906h-38.957031c-.003906-.167969-.011719-.332032-.011719-.5 0-3.238282.328125-6.414063.949219-9.503906zm-220.863281 79.820312c-1.308594-1.109375-3-1.785156-4.851562-1.785156-4.144532 0-7.503907 3.359375-7.503907 7.503906v19.007812c0 4.144532 3.359375 7.503907 7.503907 7.503907 4.144531 0 7.503906-3.359375 7.503906-7.503907v-7.78125l13.382812-10.402343 103.820313 51.910156c1.066406.535156 2.214843.789063 3.351562.789063 2.195313 0 4.351563-.964844 5.816407-2.757813l37.300781-45.714844c12.390625 8.574219 26.832031 14.382813 42.425781 16.53125v67.957031h-234.109375v-98.292968c0-4.144532-3.359375-7.503906-7.503906-7.503906s-7.503907 3.359374-7.503907 7.503906v34.636718l-26.742187 20.90625-43.351563-37.929687c-2.5-2.1875-6.144531-2.472656-8.953124-.691406l-20.597657 13.03125c-2.417969-1.078125-5.089843-1.691407-7.90625-1.691407-10.753906 0-19.507812 8.753907-19.507812 19.511719 0 10.753907 8.753906 19.507813 19.507812 19.507813 10.757813 0 19.511719-8.753906 19.511719-19.507813 0-2.339843-.4375-4.574219-1.195312-6.652343l13.476562-8.523438 43.804688 38.328125c1.410156 1.234375 3.175781 1.855469 4.941406 1.855469 1.628906 0 3.261718-.527344 4.621094-1.589844l22.390624-17.503906v53.613281h-137.0625v-174.804687h137.0625v37.488281c0 4.144531 3.359376 7.503906 7.503907 7.503906s7.503906-3.359375 7.503906-7.503906v-21.757813h150.292969c3.484375 21.957032 14.246094 41.519532 29.730468 56.136719l-33.472656 41.015625-102.675781-51.339844c-2.585937-1.292968-5.683594-.984375-7.960937.789063zm-143.414062 44.738281c0 2.480469-2.019532 4.5-4.503907 4.5-2.480469 0-4.5-2.019531-4.5-4.5 0-2.484375 2.019531-4.503906 4.5-4.503906 2.484375 0 4.503907 2.019531 4.503907 4.503906zm267.597656-124.558593c-.304688 3.148437-.472656 6.316406-.472656 9.503906 0 .167968.003906.332031.003906.5h-149.074219v-10.003906zm-293.21875-35.015626h120.273437c4.628907 0 8.394531 3.765626 8.394531 8.394532v20.898437h-137.0625v-20.898437c0-4.628906 3.765626-8.394532 8.394532-8.394532zm-8.394532 259.730469v-25.621093h137.0625v25.621093c0 4.628907-3.765624 8.394531-8.394531 8.394531h-120.273437c-4.628906 0-8.394532-3.769531-8.394532-8.394531zm411.191407-24.621093h-47.523438c-4.144531 0-7.503906 3.359374-7.503906 7.503906 0 4.140625 3.359375 7.5 7.503906 7.5h82.539063v6.9375c0 6.105468-4.96875 11.074218-11.074219 11.074218h-284.625c1.003906-2.609374 1.5625-5.4375 1.5625-8.398437v-9.613281h181.582031c4.144532 0 7.503906-3.359375 7.503906-7.5 0-4.144532-3.359374-7.503906-7.503906-7.503906h-181.582031v-10.003907h241.613281c4.140625 0 7.503906-3.363281 7.503906-7.503906v-74.570313c3.355469-.050781 6.691407-.273437 10.003907-.664062zm42.773437-127.089844c-15.101562 12.921875-34.375 20.039062-54.28125 20.039062-46.0625 0-83.539062-37.476562-83.539062-83.539062 0-19.902344 7.117187-39.179688 20.039062-54.277344 10.824219-12.652344 25.148438-21.75 40.992188-26.183594v21.054688c-18.039063 6.835937-31.804688 21.539062-37.769532 39.433594-.171874.402343-.304687.820312-.40625 1.253906-1.847656 5.957031-2.84375 12.253906-2.84375 18.71875 0 2.964844.21875 5.878906.613282 8.734375.007812.046875.011718.09375.019531.140625 2.269531 16.144531 10.613281 30.363281 22.65625 40.246094.136719.125.265625.25.410156.367187s.300781.203125.449219.308594c9.148438 7.246093 20.320312 12.039062 32.523438 13.355469.039062.003906.078124.011718.113281.015624 2.21875.234376 4.464843.359376 6.742187.359376 7.273438 0 14.328125-1.257813 20.9375-3.578126.441406-.117187.867188-.273437 1.273438-.464843 16.878906-6.339844 30.648437-19.695313 37.199218-36.976563h21.050782c-4.429688 15.84375-13.53125 30.167969-26.179688 40.992188zm0 0"/><path d="m94.042969 403.1875c0 5.800781-4.703125 10.503906-10.503907 10.503906-5.800781 0-10.503906-4.703125-10.503906-10.503906 0-5.804688 4.703125-10.507812 10.503906-10.507812 5.800782 0 10.503907 4.703124 10.503907 10.507812zm0 0"/><path d="m277.589844 51.523438h2.539062v54.523437c0 4.144531 3.359375 7.503906 7.503906 7.503906 4.144532 0 7.503907-3.359375 7.503907-7.503906v-54.523437h2.539062c8.53125 0 15.46875-6.941407 15.46875-15.46875v-20.085938c0-8.53125-6.9375-15.46875-15.46875-15.46875h-20.082031c-8.53125 0-15.472656 6.941406-15.472656 15.46875v20.085938c0 8.527343 6.941406 15.46875 15.46875 15.46875zm-.460938-35.554688c0-.253906.207032-.460938.460938-.460938h20.085937c.253907 0 .460938.207032.460938.460938v20.085938c0 .253906-.207031.460937-.460938.460937h-20.085937c-.253906 0-.460938-.207031-.460938-.460937zm0 0"/></svg>