<?xml version="1.0" encoding="iso-8859-1"?>
<!-- Generator: Adobe Illustrator 19.0.0, SVG Export Plug-In . SVG Version: 6.00 Build 0)  -->
<svg version="1.1" id="Capa_1" xmlns="http://www.w3.org/2000/svg" xmlns:xlink="http://www.w3.org/1999/xlink" x="0px" y="0px"
	 viewBox="0 0 496 496" style="enable-background:new 0 0 496 496;" xml:space="preserve">
<rect x="152" y="200" style="fill:#FFCB57;" width="192" height="56"/>
<g>
	
		<rect x="115.991" y="95.72" transform="matrix(-0.7071 0.7071 -0.7071 -0.7071 299.3473 124.0063)" style="fill:#E56565;" width="16" height="56.559"/>
	
		<rect x="43.99" y="23.715" transform="matrix(-0.7071 0.7071 -0.7071 -0.7071 125.5186 51.9972)" style="fill:#E56565;" width="16" height="56.559"/>
	
		<rect x="343.715" y="116.011" transform="matrix(-0.7071 0.7071 -0.7071 -0.7071 722.7242 -51.3412)" style="fill:#E56565;" width="56.559" height="16"/>
	
		<rect x="415.715" y="44.028" transform="matrix(-0.7071 0.7071 -0.7071 -0.7071 794.7366 -225.1344)" style="fill:#E56565;" width="56.559" height="16"/>
	<rect x="160" y="160" style="fill:#E56565;" width="176" height="16"/>
</g>
<g>
	<path style="fill:#3F3A34;" d="M398.576,380.424L320,354.232V344h-16v15.016l-11.936,47.76L259.752,368h-23.504l-32.312,38.776
		L192,359.016V344h-16v10.232l-78.576,26.192c-24.952,8.32-43.368,29.56-48.072,55.432L38.416,496h419.168l-10.936-60.144
		C441.944,409.976,423.528,388.744,398.576,380.424z M374.552,480l-6.712-33.56l-15.688,3.136L358.24,480H137.736l6.088-30.416
		l-15.688-3.144l-6.72,33.56H57.584l7.504-41.28c3.664-20.12,17.992-36.64,37.4-43.112l75.848-25.288l17.728,70.904L243.752,384
		h8.496l47.688,57.224l17.728-70.904l75.848,25.28c19.408,6.472,33.736,22.992,37.4,43.112L438.416,480H374.552z"/>
	<path style="fill:#3F3A34;" d="M112,232c0,20.528,15.6,37.296,35.536,39.552c4.08,14.04,11.616,26.912,22.24,37.536l31.192,31.2
		c7.552,7.552,17.6,11.712,28.288,11.712h37.488c10.688,0,20.736-4.16,28.288-11.712l31.192-31.2
		c10.624-10.624,18.152-23.504,22.24-37.536C368.4,269.296,384,252.528,384,232c0-13.128-6.448-24.704-16.248-32H368v-24
		c0-55.208-37.52-101.696-88.368-115.632c-0.76-6.6-3.472-12.552-7.632-17.312V24c0-13.232-10.768-24-24-24s-24,10.768-24,24v19.056
		c-4.16,4.76-6.872,10.712-7.632,17.312C165.52,74.304,128,120.792,128,176v24h0.248C118.448,207.296,112,218.872,112,232z
		 M160,246.864V208h80v24h16v-24h80v38.864c0,0.384-0.048,0.752-0.056,1.136H304v-24h-16v24h-80v-24h-16v24h-31.944
		C160.048,247.616,160,247.248,160,246.864z M314.912,297.776l-31.192,31.2c-4.528,4.528-10.56,7.024-16.976,7.024h-37.488
		c-6.416,0-12.44-2.496-16.976-7.024l-31.192-31.2c-9.448-9.456-15.872-21.104-18.96-33.776h171.744
		C330.784,276.672,324.36,288.32,314.912,297.776z M351.624,254.64c0.224-2.568,0.376-5.16,0.376-7.776v-37.392
		c9.288,3.312,16,12.112,16,22.528C368,242.552,361.104,251.44,351.624,254.64z M248,16c4.416,0,8,3.592,8,8v9.136
		c-2.576-0.672-5.224-1.136-8-1.136s-5.424,0.464-8,1.136V24C240,19.592,243.584,16,248,16z M248,48
		c6.272,0,11.664,3.664,14.28,8.928C257.592,56.368,252.84,56,248,56s-9.592,0.368-14.28,0.928C236.336,51.664,241.728,48,248,48z
		 M144,176c0-57.344,46.656-104,104-104s104,46.656,104,104v16H144V176z M144,209.472v37.392c0,2.616,0.152,5.208,0.376,7.776
		C134.896,251.44,128,242.552,128,232C128,221.584,134.712,212.792,144,209.472z"/>
	<path style="fill:#3F3A34;" d="M48,24C48,10.768,37.232,0,24,0S0,10.768,0,24s10.768,24,24,24S48,37.232,48,24z M24,32
		c-4.416,0-8-3.592-8-8s3.584-8,8-8s8,3.592,8,8S28.416,32,24,32z"/>
	<path style="fill:#3F3A34;" d="M88,120c17.648,0,32-14.352,32-32s-14.352-32-32-32S56,70.352,56,88S70.352,120,88,120z M88,72
		c8.824,0,16,7.176,16,16s-7.176,16-16,16s-16-7.176-16-16S79.176,72,88,72z"/>
	<path style="fill:#3F3A34;" d="M472,0c-13.232,0-24,10.768-24,24s10.768,24,24,24s24-10.768,24-24S485.232,0,472,0z M472,32
		c-4.416,0-8-3.592-8-8s3.584-8,8-8s8,3.592,8,8S476.416,32,472,32z"/>
	<path style="fill:#3F3A34;" d="M408,120c17.648,0,32-14.352,32-32s-14.352-32-32-32s-32,14.352-32,32S390.352,120,408,120z M408,72
		c8.824,0,16,7.176,16,16s-7.176,16-16,16s-16-7.176-16-16S399.176,72,408,72z"/>
</g>
<g>
</g>
<g>
</g>
<g>
</g>
<g>
</g>
<g>
</g>
<g>
</g>
<g>
</g>
<g>
</g>
<g>
</g>
<g>
</g>
<g>
</g>
<g>
</g>
<g>
</g>
<g>
</g>
<g>
</g>
</svg>
