<svg height="472pt" viewBox="0 -37 472 472" width="472pt" xmlns="http://www.w3.org/2000/svg"><path d="m215.550781 315.828125 41.570313.390625 41.160156.382812v-91.761718h20.109375l-82.28125-71.441406-82.5 71.441406h18.652344v90.589844zm248.449219-210.558594v252.191407c0 18.21875-14.078125 32.988281-31.449219 32.988281h-393.101562c-17.371094 0-31.449219-14.769531-31.449219-32.988281v-252.191407zm0 0" fill="#00efd1"/><path d="m464 40.539062v64.730469h-456v-64.730469c0-18.21875 14.078125-32.988281 31.449219-32.988281h393.101562c17.371094 0 31.449219 14.769531 31.449219 32.988281zm-251.589844 16.5c0-12.148437-9.378906-22-20.960937-22-11.578125 0-20.96875 9.851563-20.96875 22 0 12.152344 9.390625 21.992188 20.96875 21.992188 11.582031 0 20.960937-9.851562 20.960937-21.992188zm-68.128906 0c0-12.148437-9.390625-22-20.972656-22-11.578125 0-20.96875 9.851563-20.96875 22 0 12.152344 9.390625 21.992188 20.96875 21.992188 11.582031 0 20.972656-9.851562 20.972656-21.992188zm-68.140625 0c0-12.148437-9.390625-22-20.96875-22-11.582031 0-20.960937 9.851563-20.960937 22 0 12.152344 9.378906 21.992188 20.960937 21.992188 11.578125 0 20.96875-9.851562 20.96875-21.992188zm0 0" fill="#00acea"/><path d="m318.390625 224.839844h-164.78125l82.5-71.441406zm0 0" fill="#fedb41"/><path d="m298.28125 224.839844v91.761718l-41.160156-.382812v-46.207031h-41.570313v45.816406l-43.289062-.398437v-90.589844zm0 0" fill="#00acea"/><path d="m257.121094 316.179688v.039062l-41.570313-.390625v-45.816406h41.570313zm0 0" fill="#fedb41"/><path d="m191.449219 35.039062c11.582031 0 20.960937 9.851563 20.960937 22 0 12.152344-9.378906 21.992188-20.960937 21.992188-11.578125 0-20.96875-9.851562-20.96875-21.992188 0-12.140624 9.390625-22 20.96875-22zm0 0" fill="#f4b844"/><path d="m123.308594 35.039062c11.582031 0 20.972656 9.851563 20.972656 22 0 12.152344-9.390625 21.992188-20.972656 21.992188-11.578125 0-20.96875-9.851562-20.96875-21.992188 0-12.140624 9.390625-22 20.96875-22zm0 0" fill="#f4b844"/><path d="m55.171875 35.039062c11.578125 0 20.96875 9.851563 20.96875 22 0 12.152344-9.390625 21.992188-20.96875 21.992188-11.582031 0-20.960937-9.851562-20.960937-21.992188 0-12.140624 9.378906-22 20.960937-22zm0 0" fill="#f4b844"/><g fill="#083863"><path d="m432.550781 0h-393.101562c-21.75 0-39.449219 17.9375-39.449219 40.539062v316.921876c0 22.601562 17.699219 40.539062 39.449219 40.539062h393.101562c21.75 0 39.449219-17.9375 39.449219-40.539062v-316.921876c0-22.601562-17.699219-40.539062-39.449219-40.539062zm-393.101562 16h393.101562c12.929688 0 23.449219 10.761719 23.449219 24.539062v56.460938h-440v-56.460938c0-13.777343 10.519531-24.539062 23.449219-24.539062zm393.101562 366h-393.101562c-12.929688 0-23.449219-10.761719-23.449219-24.539062v-244.460938h440v244.460938c0 13.777343-10.519531 24.539062-23.449219 24.539062zm0 0"/><path d="m123.308594 87.03125c15.976562 0 28.972656-13.453125 28.972656-29.992188 0-16.535156-13-30-28.972656-30-15.96875 0-28.96875 13.457032-28.96875 30 0 16.542969 12.996094 29.992188 28.96875 29.992188zm0-43.992188c7.152344 0 12.972656 6.28125 12.972656 14 0 7.722657-5.820312 13.992188-12.972656 13.992188s-12.96875-6.277344-12.96875-13.992188c0-7.714843 5.816406-14 12.96875-14zm0 0"/><path d="m191.449219 87.03125c15.96875 0 28.960937-13.453125 28.960937-29.992188 0-16.535156-12.992187-30-28.960937-30s-28.96875 13.457032-28.96875 30c0 16.542969 12.996093 29.992188 28.96875 29.992188zm0-43.992188c7.148437 0 12.960937 6.28125 12.960937 14 0 7.722657-5.8125 13.992188-12.960937 13.992188-7.144531 0-12.96875-6.277344-12.96875-13.992188 0-7.714843 5.820312-14 12.96875-14zm0 0"/><path d="m55.171875 87.03125c15.972656 0 28.96875-13.453125 28.96875-29.992188 0-16.535156-13-30-28.96875-30-15.972656 0-28.960937 13.457032-28.960937 30 0 16.542969 12.988281 29.992188 28.960937 29.992188zm0-43.992188c7.148437 0 12.96875 6.28125 12.96875 14 0 7.722657-5.820313 13.992188-12.96875 13.992188-7.152344 0-12.960937-6.277344-12.960937-13.992188 0-7.714843 5.8125-14 12.960937-14zm0 0"/><path d="m241.355469 147.359375c-3.007813-2.609375-7.472657-2.613281-10.484375-.007813l-82.5 71.441407c-2.523438 2.210937-3.425782 5.753906-2.261719 8.902343 1.160156 3.152344 4.144531 5.261719 7.5 5.304688h10.390625v82.429688c.046875 4.453124 3.601562 8.074218 8.054688 8.199218l126.152343 1.371094h.074219c2.089844-.078125 4.066406-.984375 5.488281-2.519531 1.484375-1.59375 2.285157-3.703125 2.230469-5.878907v-83.601562h12.390625c3.347656-.035156 6.328125-2.136719 7.492187-5.277344 1.164063-3.140625.269532-6.675781-2.246093-8.882812zm-5.253907 16.789063 60.871094 52.851562h-121.902344zm12.898438 143.996093-25-.238281v-29.90625h25zm41 .378907-25-.230469v-38.28125c.027344-2.113281-.789062-4.144531-2.269531-5.648438-1.480469-1.507812-3.5-2.355469-5.609375-2.363281h-41.570313c-4.417969 0-7.550781 3.59375-7.550781 8.011719v37.746093l-28-.253906v-74.503906h110zm0 0"/></g></svg>