<?xml version="1.0" ?><!DOCTYPE svg  PUBLIC '-//W3C//DTD SVG 1.1//EN'  'http://www.w3.org/Graphics/SVG/1.1/DTD/svg11.dtd'><svg enable-background="new 0 0 128 128" id="Layer_1" version="1.1" viewBox="0 0 128 128" xml:space="preserve" xmlns="http://www.w3.org/2000/svg" xmlns:xlink="http://www.w3.org/1999/xlink"><path d="M64,12c-28.7,0-52,23.3-52,52s23.3,52,52,52s52-23.3,52-52S92.7,12,64,12z M64,112c-26.5,0-48-21.5-48-48  s21.5-48,48-48s48,21.5,48,48S90.5,112,64,112z" fill="#3B97D3"/><path d="M76.8,46.3l16.3,16.3c0.4,0.4,0.6,0.9,0.6,1.4c0,0.6-0.2,1.1-0.6,1.4L77,81.7c-0.8,0.8-2,0.8-2.8,0  c-0.4-0.4-0.6-0.9-0.6-1.4s0.2-1.1,0.6-1.4L86.9,66H38.2c-1.1,0-2-0.9-2-2s0.9-2,2-2h48.7L74,49.1c-0.4-0.4-0.6-0.9-0.6-1.4  s0.2-1,0.6-1.4C74.8,45.5,76,45.5,76.8,46.3z" fill="#2C3E50"/></svg>