<?xml version="1.0" encoding="iso-8859-1"?>
<!-- Generator: Adobe Illustrator 19.0.0, SVG Export Plug-In . SVG Version: 6.00 Build 0)  -->
<svg version="1.1" id="Capa_1" xmlns="http://www.w3.org/2000/svg" xmlns:xlink="http://www.w3.org/1999/xlink" x="0px" y="0px"
	 viewBox="0 0 480.005 480.005" style="enable-background:new 0 0 480.005 480.005;" xml:space="preserve">
<g>
	<path style="fill:#4F65B3;" d="M472.005,460.003v-301.6c0.004-11.51-5.749-22.259-15.328-28.64l0,0
		c-5.65-3.759-12.286-5.763-19.072-5.76h-59.2c-6.797-0.001-13.442,2.012-19.096,5.784l0,0
		c-9.563,6.382-15.305,17.119-15.304,28.616v5.6h-40c-8.837,0-16,7.163-16,16l0,0c0,8.837,7.163,16,16,16h64v264H472.005z"/>
	<path style="fill:#4F65B3;" d="M8.005,460.003v-301.6c-0.004-11.51,5.749-22.259,15.328-28.64l0,0
		c5.65-3.759,12.286-5.763,19.072-5.76h59.2c6.797-0.001,13.442,2.012,19.096,5.784l0,0c9.563,6.382,15.305,17.119,15.304,28.616
		v5.6h40c8.837,0,16,7.163,16,16l0,0c0,8.837-7.163,16-16,16h-48v264H8.005z"/>
</g>
<polygon style="fill:#FCE8CA;" points="384.005,156.003 432.005,156.003 432.005,124.003 408.005,124.003 384.005,124.003 "/>
<g>
	<path style="fill:#6ED5E6;" d="M392.005,20.003v1.992c5.224-1.359,10.603-2.029,16-1.992H392.005z"/>
	<path style="fill:#6ED5E6;" d="M424.005,20.003h-16c5.397-0.037,10.776,0.633,16,1.992V20.003z"/>
	<path style="fill:#6ED5E6;" d="M56.005,20.003v1.992c5.224-1.359,10.603-2.029,16-1.992H56.005z"/>
</g>
<polygon style="fill:#FCE8CA;" points="96.005,156.003 96.005,124.003 72.005,124.003 48.005,124.003 48.005,156.003 "/>
<path style="fill:#6ED5E6;" d="M88.005,20.003h-16c5.397-0.037,10.776,0.633,16,1.992V20.003z"/>
<g>
	<path style="fill:#DBDCE0;" d="M48.005,292.003c-22.091,0-40,17.909-40,40s17.909,40,40,40h384c22.091,0,40-17.909,40-40
		s-17.909-40-40-40H48.005z"/>
	<polygon style="fill:#DBDCE0;" points="16.005,460.003 80.005,460.003 64.005,436.003 48.005,436.003 32.005,436.003 	"/>
	<polygon style="fill:#DBDCE0;" points="400.005,460.003 464.005,460.003 448.005,436.003 432.005,436.003 416.005,436.003 	"/>
</g>
<g>
	<rect x="40.005" y="228.003" style="fill:#E3AC34;" width="64" height="64"/>
	<rect x="264.005" y="228.003" style="fill:#E3AC34;" width="64" height="64"/>
	<rect x="152.005" y="228.003" style="fill:#E3AC34;" width="64" height="64"/>
</g>
<g>
	<circle style="fill:#989AA0;" cx="72.005" cy="332.003" r="32"/>
	<circle style="fill:#989AA0;" cx="184.005" cy="332.003" r="32"/>
	<circle style="fill:#989AA0;" cx="408.005" cy="332.003" r="32"/>
	<circle style="fill:#989AA0;" cx="296.005" cy="332.003" r="32"/>
</g>
<path style="fill:#E3AC34;" d="M424.005,21.995c-10.501-2.656-21.499-2.656-32,0c-23.08,6.136-30.336,26.008-31.704,46.008h95.408
	C454.341,48.003,447.085,28.131,424.005,21.995z"/>
<g>
	<path style="fill:#FCE8CA;" d="M360.005,76.003c0,26.512,31.032,48,48,48s48-21.488,48-48c0-2.648-0.112-5.328-0.296-8h-95.408
		C360.117,70.675,360.005,73.355,360.005,76.003z"/>
	<path style="fill:#FCE8CA;" d="M120.005,76.003c0-2.648-0.112-5.328-0.296-8H24.301c-0.184,2.672-0.296,5.352-0.296,8
		c0,26.512,31.032,48,48,48S120.005,102.515,120.005,76.003z"/>
</g>
<path style="fill:#E3AC34;" d="M88.005,21.995c-10.501-2.656-21.499-2.656-32,0c-23.08,6.136-30.336,26.008-31.704,46.008h95.408
	C118.341,48.003,111.085,28.131,88.005,21.995z"/>
<rect x="64.005" y="324.003" width="16" height="16"/>
<rect x="176.005" y="324.003" width="16" height="16"/>
<rect x="288.005" y="324.003" width="16" height="16"/>
<rect x="400.005" y="324.003" width="16" height="16"/>
<path d="M461.117,123.131c-5.463-3.631-11.697-5.937-18.208-6.736c12.486-9.827,20.165-24.53,21.096-40.392h8v-16h-9.128
	c-3.792-26.4-17.112-39.048-32.392-44.432c-1.428-2.198-3.859-3.537-6.48-3.568h-32c-2.621,0.031-5.052,1.37-6.48,3.568
	c-15.28,5.384-28.6,18.032-32.392,44.432h-9.128v16h8c0.931,15.862,8.61,30.565,21.096,40.392
	c-20.303,2.498-35.899,19.183-37.024,39.608h-32.072c-13.255,0-24,10.745-24,24s10.745,24,24,24h56v80h-24v-56c0-4.418-3.582-8-8-8
	h-64c-4.418,0-8,3.582-8,8v56h-32v-56c0-4.418-3.582-8-8-8h-64c-4.418,0-8,3.582-8,8v56h-8v-80h40c13.255,0,24-10.745,24-24
	s-10.745-24-24-24h-32.072c-1.125-20.425-16.721-37.11-37.024-39.608c12.486-9.827,20.165-24.53,21.096-40.392h8v-16h-9.128
	c-3.792-26.4-17.112-39.048-32.392-44.432c-1.428-2.198-3.859-3.537-6.48-3.568h-32c-2.621,0.031-5.052,1.37-6.48,3.568
	c-15.28,5.384-28.6,18.032-32.392,44.432H8.005v16h8c0.931,15.862,8.61,30.565,21.096,40.392
	c-21.206,2.613-37.127,20.641-37.096,42.008v133.6h16v-133.6c-0.043-13.659,10.392-25.071,24-26.248v23.848c0,4.418,3.582,8,8,8h48
	c4.418,0,8-3.582,8-8v-23.824c13.599,1.177,24.03,12.574,24,26.224v5.6c0,4.418,3.582,8,8,8h40c4.418,0,8,3.582,8,8s-3.582,8-8,8
	h-48c-4.418,0-8,3.582-8,8v88h-8v-56c0-4.418-3.582-8-8-8h-64c-4.418,0-8,3.582-8,8v58.8c-24.967,8.806-38.069,36.184-29.263,61.151
	c5.799,16.443,20.069,28.44,37.263,31.329v48.72h-8c-2.674,0-5.172,1.335-6.656,3.56l-16,24c-2.452,3.675-1.461,8.643,2.215,11.095
	c1.315,0.877,2.86,1.345,4.441,1.345h64c4.418,0.001,8.001-3.581,8.001-7.999c0-1.581-0.468-3.126-1.345-4.441l-16-24
	c-1.484-2.225-3.982-3.56-6.656-3.56h-8v-48h64v72h-16v16h24c4.418,0,8-3.582,8-8v-80h224v80c0,4.418,3.582,8,8,8h16v-16h-8v-72h48
	v48h-8c-2.674,0-5.172,1.335-6.656,3.56l-16,24c-2.452,3.675-1.461,8.643,2.215,11.095c1.315,0.877,2.86,1.345,4.441,1.345h64
	c4.418,0.001,8.001-3.581,8.001-7.999c0-1.581-0.468-3.126-1.345-4.441l-16-24c-1.484-2.225-3.982-3.56-6.656-3.56h-8v-48.72
	c26.112-4.572,43.575-29.446,39.003-55.559c-4.003-22.863-23.792-39.587-47.003-39.721h-56v-88c0-4.418-3.582-8-8-8h-64
	c-4.418,0-8-3.582-8-8s3.582-8,8-8h40c4.418,0,8-3.582,8-8v-5.6c-0.043-13.659,10.392-25.071,24-26.248v23.848c0,4.418,3.582,8,8,8
	h48c4.418,0,8-3.582,8-8v-23.824c13.599,1.177,24.03,12.574,24,26.224v133.6h16v-133.6
	C480.014,144.224,472.923,130.982,461.117,123.131z M48.005,34.211v9.792h16v-15.4c2.65-0.379,5.323-0.579,8-0.6
	c2.677,0.021,5.35,0.221,8,0.6v15.4h16v-9.792c8.239,6.191,13.519,15.54,14.568,25.792H33.437
	C34.486,49.751,39.767,40.402,48.005,34.211z M112.005,76.003c0,21.488-26.832,40-40,40s-40-18.512-40-40H112.005z M56.005,148.003
	v-16h32v16H56.005z M65.061,452.003H30.949l5.336-8h23.44L65.061,452.003z M449.061,452.003h-34.112l5.336-8h23.44L449.061,452.003z
	 M408.005,356.003c-13.255,0-24-10.745-24-24s10.745-24,24-24s24,10.745,24,24S421.26,356.003,408.005,356.003z M368.005,332.003
	c0.035,12.64,6.064,24.513,16.248,32h-64.496c17.673-12.913,21.532-37.708,8.618-55.382c-2.411-3.3-5.318-6.207-8.618-8.618h64.496
	C374.07,307.489,368.041,319.363,368.005,332.003z M72.005,308.003c13.255,0,24,10.745,24,24s-10.745,24-24,24s-24-10.745-24-24
	S58.75,308.003,72.005,308.003z M112.005,332.003c-0.035-12.64-6.064-24.513-16.248-32h64.496
	c-17.673,12.913-21.532,37.708-8.618,55.382c2.411,3.3,5.318,6.207,8.618,8.618H95.757
	C105.941,356.516,111.97,344.642,112.005,332.003z M208.005,332.003c0,13.255-10.745,24-24,24s-24-10.745-24-24s10.745-24,24-24
	S208.005,318.748,208.005,332.003z M224.005,332.003c-0.035-12.64-6.064-24.513-16.248-32h64.496
	c-17.673,12.913-21.532,37.708-8.618,55.382c2.411,3.3,5.318,6.207,8.618,8.618h-64.496
	C217.941,356.516,223.97,344.642,224.005,332.003z M320.005,332.003c0,13.255-10.745,24-24,24s-24-10.745-24-24s10.745-24,24-24
	S320.005,318.748,320.005,332.003z M272.005,236.003h16v24h16v-24h16v48h-48V236.003z M160.005,236.003h16v24h16v-24h16v48h-48
	V236.003z M48.005,236.003h16v24h16v-24h16v48h-48V236.003z M16.005,332.003c0-17.673,14.327-32,32-32h0.248
	c-17.673,12.913-21.532,37.708-8.618,55.382c2.411,3.3,5.318,6.207,8.618,8.618h-0.248
	C30.332,364.003,16.005,349.676,16.005,332.003z M464.005,332.003c0,17.673-14.327,32-32,32h-0.248
	c17.673-12.913,21.532-37.708,8.618-55.382c-2.411-3.3-5.318-6.207-8.618-8.618h0.248
	C449.678,300.003,464.005,314.329,464.005,332.003z M384.005,34.211v9.792h16v-15.4c5.303-0.801,10.697-0.801,16,0v15.4h16v-9.792
	c8.239,6.191,13.519,15.54,14.568,25.792h-77.136C370.486,49.751,375.767,40.402,384.005,34.211z M448.005,76.003
	c0,21.488-26.832,40-40,40s-40-18.512-40-40H448.005z M392.005,148.003v-16h32v16H392.005z"/>
<g>
</g>
<g>
</g>
<g>
</g>
<g>
</g>
<g>
</g>
<g>
</g>
<g>
</g>
<g>
</g>
<g>
</g>
<g>
</g>
<g>
</g>
<g>
</g>
<g>
</g>
<g>
</g>
<g>
</g>
</svg>
