<svg height="464pt" viewBox="0 0 464 464" width="464pt" xmlns="http://www.w3.org/2000/svg"><path d="m352 95.601562v320.398438c0 26.507812-21.492188 48-48 48h-256c-26.507812 0-48-21.492188-48-48v-320c0-26.507812 21.492188-48 48-48h256c26.339844.03125 47.75 21.257812 48 47.601562zm0 0" fill="#00e7f0"/><path d="m352 95.601562v320.398438c0 26.507812-21.492188 48-48 48h-256c-26.507812 0-48-21.492188-48-48v-6.078125c150.792969-59.878906 275.503906-171.238281 352-314.320313zm0 0" fill="#00d7df"/><path d="m264 104v16h-176v-16c0-26.480469 21.519531-32 48-32v-40c0-17.671875 14.328125-32 32-32h16c17.671875 0 32 14.328125 32 32v40c26.480469 0 48 5.519531 48 32zm0 0" fill="#ffb655"/><path d="m192 40c0 8.835938-7.164062 16-16 16s-16-7.164062-16-16 7.164062-16 16-16 16 7.164062 16 16zm0 0" fill="#ff6243"/><path d="m464 344h-80l24 48h32zm0 0" fill="#ff6243"/><path d="m384 152h80v192h-80zm0 0" fill="#ff7956"/><path d="m424 440c8.835938 0 16-7.164062 16-16v-32h-32v32c0 8.835938 7.164062 16 16 16zm0 0" fill="#898890"/><path d="m440 152h24v-32h-80v32zm0 0" fill="#ffa733"/><path d="m464 96c0-4.417969-3.582031-8-8-8h-64c-4.417969 0-8 3.582031-8 8v24h80zm0 0" fill="#ff7956"/><path d="m448 48c0-4.417969-3.582031-8-8-8h-32c-4.417969 0-8 3.582031-8 8v40h48zm0 0" fill="#ff6243"/><path d="m408 224c0 4.417969 3.582031 8 8 8h16c4.417969 0 8-3.582031 8-8v-72h-32zm0 0" fill="#ffb655"/><path d="m56 176h64v16h-64zm0 0" fill="#898890"/><path d="m152 176h144v16h-144zm0 0" fill="#acabb1"/><path d="m56 224h64v16h-64zm0 0" fill="#898890"/><path d="m152 224h144v16h-144zm0 0" fill="#acabb1"/><path d="m56 272h64v16h-64zm0 0" fill="#898890"/><path d="m152 272h144v16h-144zm0 0" fill="#acabb1"/><path d="m56 320h64v16h-64zm0 0" fill="#898890"/><path d="m152 320h144v16h-144zm0 0" fill="#acabb1"/><path d="m56 368h64v16h-64zm0 0" fill="#898890"/><path d="m152 368h144v16h-144zm0 0" fill="#acabb1"/></svg>