<svg height="496pt" viewBox="-32 0 496 496" width="496pt" xmlns="http://www.w3.org/2000/svg"><path d="m104 448h224v40h-224zm0 0" fill="#838f9b"/><path d="m8 384h416v48c0 8.800781-7.199219 16-16 16h-384c-8.800781 0-16-7.199219-16-16zm0 0" fill="#969faa"/><path d="m424 160v224h-416v-224c0-8.800781 7.199219-16 16-16h104v16l.960938 1.441406c9.679687 14.558594 22.71875 26.160156 37.679687 34.160156s31.917969 12.398438 49.359375 12.398438c34.960938 0 67.679688-17.519531 87.039062-46.558594l.960938-1.441406v-16h104c8.800781 0 16 7.199219 16 16zm0 0" fill="#69d6f4"/><path d="m40 304h48v48h-48zm0 0" fill="#ff826e"/><path d="m336 200h56v56h-56zm0 0" fill="#fcd770"/><path d="m328 75.761719c0 4.316406-1.039062 8.558593-2.960938 12.476562l-21.039062 42.082031h-45.679688l-.398437-.160156c4-10 6.078125-20.71875 6.078125-31.839844v-24l-8.878906 4.398438c-4.640625 2.402344-9.839844 3.601562-15.121094 3.601562s-10.480469-1.199218-15.121094-3.601562l-8.878906-4.398438-8.878906 4.398438c-4.640625 2.402344-9.839844 3.601562-15.121094 3.601562s-10.480469-1.199218-15.121094-3.601562l-8.878906-4.398438v24c0 11.121094 2.078125 21.839844 6.078125 31.839844l-.398437.160156h-45.679688l-21.039062-42.082031c-1.921876-3.917969-2.960938-8.160156-2.960938-12.476562 0-10.640625 6.078125-20.402344 15.679688-25.042969l82.558593-39.917969c3.761719-1.839843 7.921875-2.800781 12.160157-2.800781h3.203124c4.238282 0 8.398438.960938 12.160157 2.800781l82.558593 39.917969c9.601563 4.640625 15.679688 14.402344 15.679688 25.042969zm0 0" fill="#838f9b"/><path d="m304 160-.960938 1.441406c-19.359374 29.039063-52.078124 46.558594-87.039062 46.558594-17.441406 0-34.398438-4.398438-49.359375-12.398438s-28-19.601562-37.679687-34.160156l-.960938-1.441406h64l.878906-.878906c6.640625 6.800781 14.402344 12.480468 23.121094 16.878906 8.71875-4.398438 16.480469-10.078125 23.121094-16.878906l.878906.878906zm0 0" fill="#838f9b"/><path d="m304 144v16h-64l-.878906-.878906c8.160156-8.242188 14.558594-18.082032 18.800781-28.960938l.398437.160156h45.679688zm0 0" fill="#ffeaa7"/><path d="m174.078125 130.160156c4.242187 10.878906 10.640625 20.71875 18.800781 28.960938l-.878906.878906h-64v-29.679688h45.679688zm0 0" fill="#ffeaa7"/><path d="m264 74.320312v24c0 11.121094-2.078125 21.839844-6.078125 31.839844-4.242187 10.878906-10.640625 20.71875-18.800781 28.960938-6.640625 6.800781-14.402344 12.480468-23.121094 16.878906-8.71875-4.398438-16.480469-10.078125-23.121094-16.878906-8.160156-8.242188-14.558594-18.082032-18.800781-28.960938-4-10-6.078125-20.71875-6.078125-31.839844v-24l8.878906 4.398438c4.640625 2.402344 9.839844 3.601562 15.121094 3.601562s10.480469-1.199218 15.121094-3.601562l8.878906-4.398438 8.878906 4.398438c4.640625 2.402344 9.839844 3.601562 15.121094 3.601562s10.480469-1.199218 15.121094-3.601562zm0 0" fill="#fcd770"/><path d="m408 136h-96v-3.777344l20.214844-40.445312c2.480468-4.945313 3.785156-10.480469 3.785156-16.007813 0-13.640625-7.929688-26.296875-20.207031-32.234375l-82.5625-39.96875c-4.839844-2.335937-10.238281-3.566406-15.605469-3.566406h-3.25c-5.367188 0-10.765625 1.230469-15.597656 3.574219l-82.5625 39.960937c-12.285156 5.945313-20.214844 18.59375-20.214844 32.234375 0 5.519531 1.304688 11.0625 3.785156 16.015625l20.214844 40.4375v3.777344h-96c-13.230469 0-24 10.769531-24 24v272c0 13.230469 10.769531 24 24 24h72v24h-32v16h304v-16h-32v-24h72c13.230469 0 24-10.769531 24-24v-272c0-13.230469-10.769531-24-24-24zm-231.40625 16h-40.59375v-13.664062h32.800781c2.214844 4.769531 4.824219 9.335937 7.792969 13.664062zm86.605469-13.664062h32.800781v13.664062h-40.59375c2.96875-4.328125 5.578125-8.894531 7.792969-13.664062zm-7.199219-40c0 28.695312-15.222656 54.625-40 68.609374-24.777344-13.984374-40-39.914062-40-68.609374v-11.175782c11.03125 4.542969 24.046875 4.085938 34.734375-1.238281l5.265625-2.640625 5.265625 2.628906c10.671875 5.335938 23.695313 5.792969 34.734375 1.242188zm-65.585938 69.664062c6.472657 5.953125 13.851563 11.078125 22 15.160156l3.585938 1.785156 3.574219-1.792968c8.160156-4.082032 15.53125-9.199219 22-15.160156h46.167969c-18.175782 20.207031-44.09375 32-71.75 32s-53.566407-11.792969-71.753907-32h46.175781zm-78.414062-92.230469c0-7.546875 4.390625-14.546875 11.175781-17.832031l82.558594-39.960938c2.691406-1.296874 5.671875-1.976562 8.640625-1.976562h3.25c2.96875 0 5.949219.679688 8.632812 1.976562l82.558594 39.96875c6.792969 3.277344 11.183594 10.277344 11.183594 17.824219 0 3.054688-.726562 6.117188-2.097656 8.855469l-18.847656 37.703125h-30.144532c2-7.710937 3.089844-15.753906 3.089844-24v-36.9375l-20.425781 10.210937c-7.160157 3.574219-16 3.574219-23.160157 0l-12.414062-6.210937-12.425781 6.210937c-7.160157 3.574219-16 3.574219-23.160157 0l-20.414062-10.210937v36.945313c0 8.25 1.097656 16.289062 3.089844 24h-30.144532l-18.847656-37.703126c-1.371094-2.746093-2.097656-5.808593-2.097656-8.863281zm-88 76.230469h96v10.425781l2.28125 3.421875c20.933594 31.398438 55.964844 50.152344 93.71875 50.152344s72.785156-18.753906 93.71875-50.160156l2.28125-3.414063v-10.425781h96c4.414062 0 8 3.59375 8 8v216h-400v-216c0-4.40625 3.585938-8 8-8zm296 328h-208v-24h208zm88-40h-384c-4.414062 0-8-3.59375-8-8v-40h400v40c0 4.40625-3.585938 8-8 8zm0 0"/><path d="m384 408h16v16h-16zm0 0"/><path d="m352 408h16v16h-16zm0 0"/><path d="m320 408h16v16h-16zm0 0"/><path d="m32 232h16v16h-16zm0 0"/><path d="m64 232h136v16h-136zm0 0"/><path d="m32 264h168v16h-168zm0 0"/><path d="m112 304h16v16h-16zm0 0"/><path d="m144 304h56v16h-56zm0 0"/><path d="m112 336h88v16h-88zm0 0"/><path d="m384 280h16v16h-16zm0 0"/><path d="m232 280h136v16h-136zm0 0"/><path d="m232 312h168v16h-168zm0 0"/><path d="m384 344h16v16h-16zm0 0"/><path d="m232 344h136v16h-136zm0 0"/><path d="m400 192h-72v72h72zm-16 56h-40v-40h40zm0 0"/><path d="m296 248h16v16h-16zm0 0"/><path d="m264 248h16v16h-16zm0 0"/><path d="m232 248h16v16h-16zm0 0"/><path d="m96 296h-64v64h64zm-16 48h-32v-32h32zm0 0"/></svg>