<svg height="464pt" viewBox="0 0 464 464.00001" width="464pt" xmlns="http://www.w3.org/2000/svg"><path d="m72 160h320v192h-320zm0 0" fill="#faeed8"/><path d="m224 304c-61.855469 0-112-50.144531-112-112v-32h-40v192h320v-48zm0 0" fill="#e8d4b8"/><path d="m392 160v192h-320v-192h72l-32-32h-56c-8.835938 0-16 7.164062-16 16v224c0 8.835938 7.164062 16 16 16h352c8.835938 0 16-7.164062 16-16v-208zm0 0" fill="#faa108"/><path d="m72 352v-124.078125c-15-29.03125-24.902344-60.421875-29.28125-92.800781-1.761719 2.625-2.710938 5.714844-2.71875 8.878906v224c0 8.835938 7.164062 16 16 16h272c-45.898438.039062-91.140625-10.933594-131.921875-32zm0 0" fill="#d6850d"/><path d="m304 128h-128v32h160c-17.671875 0-32-14.328125-32-32zm0 0" fill="#faa108"/><path d="m392 160v16h16c5.628906-.035156 11.144531-1.550781 16-4.398438v-11.601562zm0 0" fill="#d6850d"/><path d="m284.398438 160h51.601562c-17.671875 0-32-14.328125-32-32h-24v16c.035156 5.628906 1.550781 11.144531 4.398438 16zm0 0" fill="#d6850d"/><path d="m104 160h40l-32-32h-56c-8.835938 0-16 7.164062-16 16h48zm0 0" fill="#d6850d"/><path d="m176 384h112v48h-112zm0 0" fill="#fd412d"/><path d="m176 384h112v24h-112zm0 0" fill="#d6332b"/><path d="m120 432h224c8.835938 0 16 7.164062 16 16s-7.164062 16-16 16h-224c-8.835938 0-16-7.164062-16-16s7.164062-16 16-16zm0 0" fill="#faa108"/><path d="m344 448h-224c-5.683594-.035156-10.917969-3.078125-13.761719-8-1.4375 2.421875-2.210937 5.183594-2.238281 8 0 8.835938 7.164062 16 16 16h224c8.835938 0 16-7.164062 16-16-.027344-2.816406-.800781-5.578125-2.238281-8-2.84375 4.921875-8.078125 7.964844-13.761719 8zm0 0" fill="#d6850d"/><path d="m208 264v-64l64 32zm0 0" fill="#fd412d"/><path d="m336 0h96c17.671875 0 32 14.328125 32 32v96c0 17.671875-14.328125 32-32 32h-96c-17.671875 0-32-14.328125-32-32v-96c0-17.671875 14.328125-32 32-32zm0 0" fill="#fd412d"/><path d="m192 0h-176c-8.835938 0-16 7.164062-16 16v96c0 8.835938 7.164062 16 16 16h96l64 64v-64h16c8.835938 0 16-7.164062 16-16v-96c0-8.835938-7.164062-16-16-16zm0 0" fill="#70dda8"/><path d="m416 120c-39.765625 0-72-32.234375-72-72v-48h-8c-17.671875 0-32 14.328125-32 32v96c0 17.671875 14.328125 32 32 32h96c17.671875 0 32-14.328125 32-32v-8zm0 0" fill="#d6332b"/><path d="m96 88c-30.929688 0-56-25.070312-56-56v-32h-24c-8.835938 0-16 7.164062-16 16v96c0 8.835938 7.164062 16 16 16h96l64 64v-64h16c8.835938 0 16-7.164062 16-16v-24zm0 0" fill="#40bf7c"/><path d="m416 80c0 17.671875-14.328125 32-32 32s-32-14.328125-32-32 14.328125-32 32-32 32 14.328125 32 32zm0 0" fill="#fc756b"/><g fill="#2b8955"><path d="m72 40h80c4.417969 0 8-3.582031 8-8s-3.582031-8-8-8h-80c-4.417969 0-8 3.582031-8 8s3.582031 8 8 8zm0 0"/><path d="m40 72h64c4.417969 0 8-3.582031 8-8s-3.582031-8-8-8h-64c-4.417969 0-8 3.582031-8 8s3.582031 8 8 8zm0 0"/><path d="m160 96c0-4.417969-3.582031-8-8-8h-72c-4.417969 0-8 3.582031-8 8s3.582031 8 8 8h72c4.417969 0 8-3.582031 8-8zm0 0"/><path d="m48 88h-8c-4.417969 0-8 3.582031-8 8s3.582031 8 8 8h8c4.417969 0 8-3.582031 8-8s-3.582031-8-8-8zm0 0"/><path d="m152 56h-16c-4.417969 0-8 3.582031-8 8s3.582031 8 8 8h16c4.417969 0 8-3.582031 8-8s-3.582031-8-8-8zm0 0"/><path d="m344 304h-192v-8c0-4.417969-3.582031-8-8-8s-8 3.582031-8 8v8h-24c-4.417969 0-8 3.582031-8 8s3.582031 8 8 8h24v8c0 4.417969 3.582031 8 8 8s8-3.582031 8-8v-8h192c4.417969 0 8-3.582031 8-8s-3.582031-8-8-8zm0 0"/><path d="m144 208c4.417969 0 8-3.582031 8-8s-3.582031-8-8-8c-13.253906 0-24 10.746094-24 24v8h-8c-4.417969 0-8 3.582031-8 8s3.582031 8 8 8h8v24c0 4.417969 3.582031 8 8 8s8-3.582031 8-8v-24h8c4.417969 0 8-3.582031 8-8s-3.582031-8-8-8h-8v-8c0-4.417969 3.582031-8 8-8zm0 0"/></g><path d="m328 272c4.417969 0 8-3.582031 8-8v-40c0-4.417969-3.582031-8-8-8s-8 3.582031-8 8v40c0 4.417969 3.582031 8 8 8zm0 0" fill="#f9c170"/><path d="m336 200c0 4.417969-3.582031 8-8 8s-8-3.582031-8-8 3.582031-8 8-8 8 3.582031 8 8zm0 0" fill="#f9c170"/></svg>